<?xml version="1.0" encoding="UTF-8"?>
<svg id="_Слой_2" data-name="Слой 2" xmlns="http://www.w3.org/2000/svg" viewBox="0 0 59.92 59.95">
  <defs>
    <style>
      .cls-1 {
        fill: none;
        stroke: #0159d9;
        stroke-miterlimit: 10;
        stroke-width: 1.42px;
      }
    </style>
  </defs>
  <g id="_Слой_1-2" data-name="Слой 1">
    <g>
      <path class="cls-1" d="M49.72,3.12H3.21v34.28c0,2.59,2.09,4.67,4.67,4.67h29.51"/>
      <circle class="cls-1" cx="48.31" cy="14.02" r="6.23"/>
      <path class="cls-1" d="M54.54,39.95v16.14c0,1.75-1.45,3.18-3.18,3.15-1.67-.03-3.05-1.43-3.05-3.15-.02,1.7-1.42,3.09-3.12,3.09s-3.1-1.39-3.12-3.09v-24.93h-6.23c-.86,0-1.64-.34-2.2-.92-.58-.56-.92-1.34-.92-2.2,0-1.71,1.4-3.12,3.12-3.12h18.92c2.46,0,4.46,1.99,4.46,4.46v10.56c0,1.17-.95,2.12-2.12,2.12h-.44c-1.17,0-2.12-.95-2.12-2.12v-7.23"/>
      <line class="cls-1" x1="48.31" y1="44.3" x2="48.31" y2="56.1"/>
      <line class="cls-1" x1="28.05" y1="42.07" x2="28.05" y2="54.54"/>
      <polyline class="cls-1" points="21.82 56.1 28.05 48.31 34.28 56.1"/>
      <line class="cls-1" y1="3.12" x2="52.98" y2="3.12"/>
      <line class="cls-1" x1="28.05" x2="28.05" y2="3.12"/>
      <polyline class="cls-1" points="10.91 29.61 18.7 21.82 23.37 26.49 37.4 14.02"/>
    </g>
  </g>
</svg>