<?xml version="1.0" encoding="UTF-8"?>
<svg id="_Слой_2" data-name="Слой 2" xmlns="http://www.w3.org/2000/svg" viewBox="0 0 62.43 61.52">
  <defs>
    <style>
      .cls-1 {
        fill: none;
        stroke: #0159d9;
        stroke-miterlimit: 10;
        stroke-width: 1.42px;
      }
    </style>
  </defs>
  <g id="_Слой_1-2" data-name="Слой 1">
    <g>
      <path class="cls-1" d="M38.31,32.15c0,3.96-3.21,7.18-7.18,7.18s-7.18-3.21-7.18-7.18,3.21-7.18,7.18-7.18,7.18,3.21,7.18,7.18Z"/>
      <path class="cls-1" d="M18.57,55.74v-5.64c0-2.97,2.41-5.38,5.38-5.38h14.35c2.97,0,5.38,2.41,5.38,5.38v5.64c0,1.23-.71,2.36-1.84,2.85-2.43,1.05-6.12,2.23-10.72,2.23s-8.29-1.18-10.72-2.23c-1.13-.49-1.84-1.62-1.84-2.85Z"/>
      <line class="cls-1" x1="23.95" y1="59.83" x2="23.95" y2="53.68"/>
      <line class="cls-1" x1="38.31" y1="59.83" x2="38.31" y2="53.68"/>
      <polygon class="cls-1" points="53.03 7.83 55.46 12.77 60.9 13.56 56.97 17.39 57.9 22.81 53.03 20.25 48.16 22.81 49.09 17.39 45.15 13.56 50.6 12.77 53.03 7.83"/>
      <polygon class="cls-1" points="31.21 1.6 33.65 6.53 39.09 7.32 35.15 11.16 36.08 16.58 31.21 14.02 26.35 16.58 27.28 11.16 23.34 7.32 28.78 6.53 31.21 1.6"/>
      <polygon class="cls-1" points="9.4 7.83 11.83 12.77 17.27 13.56 13.34 17.39 14.26 22.81 9.4 20.25 4.53 22.81 5.46 17.39 1.52 13.56 6.96 12.77 9.4 7.83"/>
    </g>
  </g>
</svg>