<?xml version="1.0" encoding="UTF-8"?>
<svg id="_Слой_2" data-name="Слой 2" xmlns="http://www.w3.org/2000/svg" viewBox="0 0 60.63 60.63">
  <defs>
    <style>
      .cls-1 {
        fill: none;
        stroke: #0159d9;
        stroke-miterlimit: 10;
        stroke-width: 1.42px;
      }
    </style>
  </defs>
  <g id="_Слой_1-2" data-name="Слой 1">
    <g>
      <path class="cls-1" d="M43.55,43.55c-.83.83-1.7,1.56-2.63,2.2-.26.19-.53.36-.81.53-1.2.72-2.43,1.31-3.72,1.75-.16.06-.31.11-.47.16-3.63,1.12-7.54,1.12-11.19,0-.16-.05-.31-.11-.47-.17-1.29-.44-2.52-1.03-3.72-1.75-.26-.17-.54-.34-.81-.53-.92-.64-1.81-1.36-2.62-2.18-7.31-7.28-7.32-19.14-.02-26.44,7.29-7.31,19.13-7.32,26.44-.02,7.31,7.29,7.32,19.13.02,26.46Z"/>
      <path class="cls-1" d="M36.37,26.4c0,3.34-2.71,6.05-6.05,6.05s-6.06-2.71-6.06-6.05,2.71-6.05,6.06-6.05,6.05,2.71,6.05,6.05Z"/>
      <line class="cls-1" x1="36.38" y1="48.02" x2="36.38" y2="43"/>
      <path class="cls-1" d="M40.91,41.54v4.21c-.26.19-.53.36-.81.53-1.2.72-2.43,1.31-3.73,1.75-.16.06-.31.11-.47.16-3.63,1.12-7.54,1.12-11.19,0-.16-.05-.31-.11-.47-.17-1.29-.44-2.52-1.03-3.72-1.75-.27-.17-.55-.34-.81-.53v-4.19c0-2.51,2.03-4.53,4.55-4.53h12.09c2.52,0,4.55,2.03,4.55,4.53Z"/>
      <line class="cls-1" x1="24.25" y1="48" x2="24.25" y2="43"/>
      <circle class="cls-1" cx="55.25" cy="5.38" r="4.67" transform="translate(-.15 8.92) rotate(-9.22)"/>
      <circle class="cls-1" cx="5.38" cy="5.38" r="4.67" transform="translate(-.79 .93) rotate(-9.22)"/>
      <circle class="cls-1" cx="55.25" cy="55.25" r="4.67" transform="translate(-8.14 9.56) rotate(-9.22)"/>
      <circle class="cls-1" cx="5.38" cy="55.25" r="4.67" transform="translate(-8.78 1.58) rotate(-9.22)"/>
      <polyline class="cls-1" points="8.69 8.69 17.09 17.1 17.1 17.1"/>
      <line class="cls-1" x1="51.94" y1="8.69" x2="43.53" y2="17.1"/>
      <polyline class="cls-1" points="8.69 51.94 17.1 43.55 17.1 43.53"/>
      <line class="cls-1" x1="51.94" y1="51.94" x2="43.55" y2="43.55"/>
    </g>
  </g>
</svg>