<?xml version="1.0" encoding="UTF-8"?>
<svg id="_Слой_2" data-name="Слой 2" xmlns="http://www.w3.org/2000/svg" viewBox="0 0 60.63 60.63">
  <defs>
    <style>
      .cls-1 {
        fill: none;
        stroke: #0159d9;
        stroke-miterlimit: 10;
        stroke-width: 1.42px;
      }
    </style>
  </defs>
  <g id="_Слой_1-2" data-name="Слой 1">
    <g>
      <path class="cls-1" d="M37.49,31.26c0,3.96-3.21,7.18-7.18,7.18s-7.18-3.21-7.18-7.18,3.21-7.18,7.18-7.18,7.18,3.21,7.18,7.18Z"/>
      <circle class="cls-1" cx="11.72" cy="30.37" r="6.29" transform="translate(-20.82 29.57) rotate(-67.5)"/>
      <line class="cls-1" x1="17.82" y1="54.62" x2="17.82" y2="49.22"/>
      <path class="cls-1" d="M13.18,55.43c-.48.03-.96.05-1.46.05-2.48,0-4.67-.4-6.48-.92-1.12-.33-2.09-.69-2.9-1.04-.98-.42-1.62-1.42-1.62-2.49v-4.94c0-2.6,2.12-4.72,4.72-4.72h12.58"/>
      <line class="cls-1" x1="5.23" y1="54.62" x2="5.23" y2="49.22"/>
      <circle class="cls-1" cx="48.92" cy="30.37" r="6.29" transform="translate(-4.23 8.23) rotate(-9.22)"/>
      <path class="cls-1" d="M47.46,55.43c.48.03.96.05,1.46.05,2.4,0,4.53-.37,6.3-.87,1.2-.33,2.23-.72,3.09-1.09,1-.42,1.62-1.42,1.62-2.49v-4.94c0-2.6-2.1-4.72-4.72-4.72h-12.56"/>
      <line class="cls-1" x1="55.21" y1="49.22" x2="55.21" y2="54.62"/>
      <path class="cls-1" d="M17.76,54.84v-5.64c0-2.97,2.41-5.38,5.38-5.38h14.35c2.97,0,5.38,2.41,5.38,5.38v5.64c0,1.23-.71,2.36-1.84,2.85-2.43,1.05-6.12,2.23-10.72,2.23s-8.29-1.18-10.72-2.23c-1.13-.49-1.84-1.62-1.84-2.85Z"/>
      <line class="cls-1" x1="23.13" y1="58.94" x2="23.13" y2="52.79"/>
      <line class="cls-1" x1="37.5" y1="58.94" x2="37.5" y2="52.79"/>
      <path class="cls-1" d="M53.69.71H6.94c-1.72,0-3.12,1.39-3.12,3.12v7.79c0,1.72,1.39,3.12,3.12,3.12h3.12v4.67l6.49-4.67h10.43l3.34,4.67,3.34-4.67h10.43l6.49,4.67v-4.67h3.12c1.72,0,3.12-1.4,3.12-3.12V3.83c0-1.72-1.39-3.12-3.12-3.12Z"/>
      <path class="cls-1" d="M22.52,8.5c0,.86-.7,1.56-1.56,1.56s-1.56-.7-1.56-1.56.7-1.56,1.56-1.56,1.56.7,1.56,1.56"/>
      <path class="cls-1" d="M31.87,8.5c0,.86-.7,1.56-1.56,1.56s-1.56-.7-1.56-1.56.7-1.56,1.56-1.56,1.56.7,1.56,1.56"/>
      <path class="cls-1" d="M41.22,8.5c0,.86-.7,1.56-1.56,1.56s-1.56-.7-1.56-1.56.7-1.56,1.56-1.56,1.56.7,1.56,1.56"/>
    </g>
  </g>
</svg>