<?xml version="1.0" encoding="UTF-8"?>
<svg id="_Слой_2" data-name="Слой 2" xmlns="http://www.w3.org/2000/svg" viewBox="0 0 159.15 41.26">
  <defs>
    <style>
      .cls-1 {
        fill: #0159d9;
      }

      .cls-2 {
        fill: #01113f;
      }
    </style>
  </defs>
  <g id="_Слой_1-2" data-name="Слой 1">
    <g>
      <g>
        <path class="cls-1" d="M6.92,29.71H0L14.05,0h10.48l14.09,29.71h-6.92l-3.35-7.09H10.23l-3.31,7.09ZM12.86,17.06h12.86l-6.41-13.54-6.45,13.54Z"/>
        <path class="cls-1" d="M48.17,29.71h-6.24V0h25.76c11.97.25,12.05,17.57,0,17.82h-19.52v11.88ZM67.44,5.56h-19.27v6.92h19.27c4.07,0,4.07-6.92,0-6.92Z"/>
        <path class="cls-1" d="M87.05,29.71h-6.24V0h25.08c10.44.21,11.71,15.7,2.93,18.25h.04l6.24,11.46h-6.75l-6.15-11.29h-15.15v11.29ZM105.64,5.56h-18.59v7.51h18.59c4.33,0,4.33-7.51,0-7.51Z"/>
        <path class="cls-1" d="M125.88,29.71h-6.24V0h11.54l8.23,25.08L147.65,0h11.5v29.71h-6.24V3.95l-8.28,25.76h-10.48l-8.28-25.76v25.76Z"/>
      </g>
      <g>
        <path class="cls-2" d="M2.53,41.17l-.24-.68H.84l-.24.68h-.61l1.23-3.4h.67l1.23,3.4h-.6ZM1.03,39.96h1.08l-.54-1.53-.54,1.53Z"/>
        <path class="cls-2" d="M5.99,41.23c-.33,0-.61-.07-.83-.22s-.39-.35-.48-.61l.48-.28c.14.38.42.57.84.57.21,0,.37-.04.48-.12.1-.08.16-.19.16-.33s-.06-.24-.17-.32c-.11-.07-.31-.16-.6-.24-.08-.02-.15-.05-.22-.07-.06-.02-.12-.05-.18-.07s-.11-.05-.16-.08c-.05-.03-.1-.06-.16-.1-.22-.16-.33-.38-.33-.68s.11-.54.32-.71c.21-.18.47-.27.77-.27.28,0,.51.07.72.2s.36.32.47.55l-.47.27c-.14-.32-.38-.48-.71-.48-.16,0-.3.04-.39.11-.1.08-.14.18-.14.31,0,.06.01.12.03.17s.06.09.11.13c.05.04.12.08.21.12.09.04.2.08.33.11.06.02.12.04.17.06.05.01.08.03.11.04.03,0,.07.02.11.04.04.02.09.04.14.06s.1.05.15.07c.04.02.08.05.1.07.05.04.09.08.13.12.04.05.08.1.12.16.03.06.06.12.08.19.02.07.03.14.02.23,0,.31-.11.55-.33.73-.22.18-.51.27-.87.27Z"/>
        <path class="cls-2" d="M10.16,41.23c-.33,0-.61-.07-.83-.22s-.38-.35-.48-.61l.48-.28c.14.38.42.57.84.57.21,0,.37-.04.48-.12.1-.08.16-.19.16-.33s-.06-.24-.17-.32c-.11-.07-.31-.16-.6-.24-.08-.02-.15-.05-.22-.07-.06-.02-.12-.05-.18-.07s-.11-.05-.16-.08c-.05-.03-.1-.06-.16-.1-.22-.16-.33-.38-.33-.68s.11-.54.32-.71c.21-.18.47-.27.77-.27.27,0,.51.07.72.2s.36.32.47.55l-.47.27c-.14-.32-.38-.48-.71-.48-.17,0-.3.04-.39.11-.1.08-.14.18-.14.31,0,.06.01.12.03.17s.06.09.11.13c.05.04.12.08.21.12s.2.08.33.11c.06.02.12.04.17.06s.09.03.11.04c.03,0,.07.02.11.04.04.02.09.04.14.06.05.02.1.05.15.07.04.02.08.05.1.07.05.04.09.08.13.12.04.05.08.1.12.16.03.06.06.12.08.19.02.07.03.14.02.23,0,.31-.11.55-.33.73-.22.18-.51.27-.87.27Z"/>
        <path class="cls-2" d="M16.11,40.72c-.34.34-.76.51-1.25.51s-.91-.17-1.25-.51c-.34-.34-.51-.76-.51-1.25s.17-.91.51-1.25.76-.51,1.25-.51.91.17,1.25.51c.34.34.51.76.51,1.25s-.17.91-.51,1.25ZM14.01,40.34c.24.23.52.34.86.34s.62-.11.85-.34c.23-.23.35-.52.35-.87s-.12-.64-.35-.87c-.23-.23-.51-.35-.85-.35s-.63.12-.86.35c-.23.23-.34.52-.34.87s.11.64.34.87Z"/>
        <path class="cls-2" d="M20.2,41.23c-.51,0-.94-.17-1.27-.5-.34-.34-.5-.76-.5-1.26s.17-.92.5-1.25c.33-.34.76-.51,1.27-.51.16,0,.31.02.45.06.14.04.28.09.41.16.13.07.24.16.34.25s.19.21.26.34l-.49.28c-.09-.17-.22-.3-.4-.4s-.37-.15-.58-.15c-.36,0-.65.12-.88.34-.22.23-.33.52-.33.87s.11.65.33.87c.23.23.52.34.88.34.21,0,.41-.05.58-.15.17-.1.31-.23.39-.4l.49.28c-.14.25-.34.45-.61.6-.26.15-.54.22-.85.22Z"/>
        <path class="cls-2" d="M23.58,37.77h.56v3.4h-.56v-3.4Z"/>
        <path class="cls-2" d="M28.49,41.17l-.24-.68h-1.45l-.24.68h-.61l1.23-3.4h.67l1.23,3.4h-.6ZM26.99,39.96h1.08l-.54-1.53-.54,1.53Z"/>
        <path class="cls-2" d="M32.87,37.77v.53h-.96v2.86h-.56v-2.86h-.96v-.53h2.48Z"/>
        <path class="cls-2" d="M34.74,37.77h.56v3.4h-.56v-3.4Z"/>
        <path class="cls-2" d="M40.27,40.72c-.34.34-.76.51-1.25.51s-.91-.17-1.25-.51c-.34-.34-.51-.76-.51-1.25s.17-.91.51-1.25.76-.51,1.25-.51.91.17,1.25.51c.34.34.51.76.51,1.25s-.17.91-.51,1.25ZM38.17,40.34c.24.23.52.34.86.34s.62-.11.85-.34c.23-.23.35-.52.35-.87s-.12-.64-.35-.87c-.23-.23-.51-.35-.85-.35s-.63.12-.86.35c-.23.23-.34.52-.34.87s.11.64.34.87Z"/>
        <path class="cls-2" d="M44.79,37.77h.56v3.4h-.44l-1.6-2.31v2.31h-.56v-3.4h.44l1.6,2.31v-2.31Z"/>
        <path class="cls-2" d="M53,40.72c-.34.34-.76.51-1.25.51s-.91-.17-1.25-.51c-.34-.34-.51-.76-.51-1.25s.17-.91.51-1.25.76-.51,1.25-.51.91.17,1.25.51c.34.34.51.76.51,1.25s-.17.91-.51,1.25ZM50.89,40.34c.24.23.52.34.86.34s.62-.11.85-.34c.23-.23.35-.52.35-.87s-.12-.64-.35-.87c-.23-.23-.51-.35-.85-.35s-.63.12-.86.35c-.23.23-.34.52-.34.87s.11.64.34.87Z"/>
        <path class="cls-2" d="M57.47,38.3h-1.43v.95h1.38v.53h-1.38v1.38h-.56v-3.4h1.99v.53Z"/>
        <path class="cls-2" d="M63.37,37.77c.32,0,.59.11.8.32.22.21.33.48.33.8s-.11.58-.33.8-.48.32-.8.32h-.69v1.16h-.56v-3.4h1.25ZM63.37,39.48c.08,0,.16-.01.23-.04.07-.03.13-.07.18-.12.05-.05.09-.12.12-.19.03-.07.04-.15.04-.24s-.01-.17-.04-.24c-.03-.07-.07-.13-.12-.19-.05-.05-.11-.09-.18-.12-.07-.03-.15-.04-.23-.04h-.69v1.18h.69Z"/>
        <path class="cls-2" d="M68.37,41.17l-.72-1.24h-.66v1.24h-.56v-3.4h1.36c.3,0,.56.11.77.32.21.21.32.47.32.77,0,.11-.02.21-.05.31s-.08.2-.14.28c-.06.09-.13.16-.21.23s-.17.12-.27.16l.77,1.32h-.61ZM66.99,38.29v1.13h.8c.07,0,.14-.01.21-.04s.12-.07.17-.12.09-.11.11-.18c.03-.07.04-.14.04-.22s-.01-.15-.04-.22c-.03-.07-.07-.13-.11-.18-.05-.05-.11-.09-.17-.12s-.13-.04-.21-.04h-.8Z"/>
        <path class="cls-2" d="M76.32,41l-.45.26-.33-.35c-.27.21-.58.32-.95.32s-.63-.09-.84-.27c-.21-.18-.32-.42-.32-.73,0-.2.05-.39.15-.56.1-.17.25-.31.44-.41-.13-.18-.19-.38-.19-.59,0-.28.1-.52.3-.69.2-.18.44-.27.74-.27.23,0,.44.06.63.18.19.12.33.3.42.52l-.48.27c-.05-.14-.12-.24-.22-.32s-.22-.12-.35-.12-.25.04-.34.12-.14.18-.14.31c0,.07.01.14.04.2.03.07.06.12.09.17s.09.1.15.17l.82.89c.08-.17.14-.36.17-.59l.48.27c-.06.27-.15.51-.28.72l.44.48ZM74.63,40.71c.22,0,.4-.06.56-.18l-.83-.9c-.24.12-.36.31-.36.56,0,.16.05.28.16.38s.26.14.47.14Z"/>
        <path class="cls-2" d="M84.15,37.77v3.4h-.56v-2.42l-1.03,1.71h-.07l-1.03-1.71v2.43h-.56v-3.4h.6l1.02,1.7,1.03-1.7h.6Z"/>
        <path class="cls-2" d="M86.85,40.63h1.5v.53h-2.06v-3.4h2.04v.53h-1.48v.88h1.36v.53h-1.36v.92Z"/>
        <path class="cls-2" d="M91.65,37.77c.47,0,.85.16,1.16.49.31.33.47.73.47,1.21s-.16.88-.47,1.21c-.31.33-.69.49-1.16.49h-1.33v-3.4h1.33ZM91.65,40.63c.32,0,.58-.11.78-.33.2-.22.31-.5.31-.83s-.1-.61-.31-.83c-.2-.22-.46-.33-.78-.33h-.78v2.33h.78Z"/>
        <path class="cls-2" d="M95.25,37.77h.56v3.4h-.56v-3.4Z"/>
        <path class="cls-2" d="M100.15,41.17l-.24-.68h-1.45l-.24.68h-.61l1.23-3.4h.67l1.23,3.4h-.6ZM98.65,39.96h1.08l-.54-1.53-.54,1.53Z"/>
        <path class="cls-2" d="M106.5,37.77c.32,0,.59.11.8.32.22.21.33.48.33.8s-.11.58-.33.8-.48.32-.8.32h-.69v1.16h-.56v-3.4h1.25ZM106.5,39.48c.08,0,.16-.01.23-.04.07-.03.13-.07.18-.12.05-.05.09-.12.12-.19.03-.07.04-.15.04-.24s-.01-.17-.04-.24c-.03-.07-.07-.13-.12-.19-.05-.05-.11-.09-.18-.12-.07-.03-.14-.04-.23-.04h-.69v1.18h.69Z"/>
        <path class="cls-2" d="M111.5,41.17l-.72-1.24h-.66v1.24h-.56v-3.4h1.36c.3,0,.56.11.77.32.21.21.32.47.32.77,0,.11-.02.21-.05.31s-.08.2-.14.28c-.06.09-.13.16-.21.23-.08.07-.17.12-.27.16l.77,1.32h-.61ZM110.12,38.29v1.13h.8c.07,0,.14-.01.21-.04.06-.03.12-.07.17-.12s.09-.11.11-.18.04-.14.04-.22-.01-.15-.04-.22c-.03-.07-.07-.13-.11-.18-.05-.05-.11-.09-.17-.12-.06-.03-.13-.04-.21-.04h-.8Z"/>
        <path class="cls-2" d="M116.81,40.72c-.34.34-.76.51-1.25.51s-.91-.17-1.25-.51c-.34-.34-.51-.76-.51-1.25s.17-.91.51-1.25.76-.51,1.25-.51.91.17,1.25.51c.34.34.51.76.51,1.25s-.17.91-.51,1.25ZM114.7,40.34c.24.23.52.34.86.34s.62-.11.85-.34c.23-.23.35-.52.35-.87s-.12-.64-.35-.87c-.23-.23-.51-.35-.85-.35s-.63.12-.86.35c-.23.23-.34.52-.34.87s.11.64.34.87Z"/>
        <path class="cls-2" d="M121.28,38.3h-1.43v.95h1.38v.53h-1.38v1.38h-.56v-3.4h1.99v.53Z"/>
        <path class="cls-2" d="M123.82,40.63h1.5v.53h-2.06v-3.4h2.04v.53h-1.48v.88h1.36v.53h-1.36v.92Z"/>
        <path class="cls-2" d="M128.42,41.23c-.33,0-.61-.07-.83-.22-.23-.15-.39-.35-.48-.61l.48-.28c.14.38.42.57.84.57.21,0,.37-.04.48-.12.1-.08.16-.19.16-.33s-.06-.24-.17-.32c-.11-.07-.31-.16-.6-.24-.08-.02-.15-.05-.22-.07-.06-.02-.12-.05-.18-.07-.06-.02-.11-.05-.16-.08-.05-.03-.1-.06-.16-.1-.22-.16-.33-.38-.33-.68s.11-.54.32-.71c.21-.18.47-.27.77-.27.27,0,.51.07.72.2s.36.32.47.55l-.47.27c-.14-.32-.38-.48-.71-.48-.17,0-.3.04-.39.11-.1.08-.14.18-.14.31,0,.06.01.12.03.17s.06.09.11.13c.05.04.12.08.21.12.09.04.2.08.33.11.06.02.12.04.17.06s.09.03.11.04c.03,0,.07.02.11.04.04.02.09.04.14.06s.1.05.15.07c.04.02.08.05.1.07.05.04.09.08.13.12.04.05.08.1.12.16.03.06.06.12.08.19.02.07.03.14.02.23,0,.31-.11.55-.33.73-.22.18-.51.27-.87.27Z"/>
        <path class="cls-2" d="M132.58,41.23c-.33,0-.61-.07-.83-.22-.23-.15-.39-.35-.48-.61l.48-.28c.14.38.42.57.84.57.21,0,.37-.04.48-.12.1-.08.16-.19.16-.33s-.06-.24-.17-.32c-.11-.07-.31-.16-.6-.24-.08-.02-.15-.05-.22-.07-.06-.02-.12-.05-.18-.07-.06-.02-.11-.05-.16-.08-.05-.03-.1-.06-.16-.1-.22-.16-.33-.38-.33-.68s.11-.54.32-.71c.21-.18.47-.27.77-.27.27,0,.51.07.72.2s.36.32.47.55l-.47.27c-.14-.32-.38-.48-.71-.48-.17,0-.3.04-.39.11-.1.08-.14.18-.14.31,0,.06.01.12.03.17s.06.09.11.13c.05.04.12.08.21.12.09.04.2.08.33.11.06.02.12.04.17.06s.09.03.11.04c.03,0,.07.02.11.04.04.02.09.04.14.06s.1.05.15.07c.04.02.08.05.1.07.05.04.09.08.13.12.04.05.08.1.12.16.03.06.06.12.08.19.02.07.03.14.02.23,0,.31-.11.55-.33.73-.22.18-.51.27-.87.27Z"/>
        <path class="cls-2" d="M135.7,37.77h.56v3.4h-.56v-3.4Z"/>
        <path class="cls-2" d="M141.23,40.72c-.34.34-.76.51-1.25.51s-.91-.17-1.25-.51c-.34-.34-.51-.76-.51-1.25s.17-.91.51-1.25.76-.51,1.25-.51.91.17,1.25.51c.34.34.51.76.51,1.25s-.17.91-.51,1.25ZM139.13,40.34c.24.23.52.34.86.34s.62-.11.85-.34c.23-.23.35-.52.35-.87s-.12-.64-.35-.87c-.23-.23-.51-.35-.85-.35s-.63.12-.86.35c-.23.23-.34.52-.34.87s.11.64.34.87Z"/>
        <path class="cls-2" d="M145.75,37.77h.56v3.4h-.44l-1.6-2.31v2.31h-.56v-3.4h.44l1.6,2.31v-2.31Z"/>
        <path class="cls-2" d="M150.66,41.17l-.24-.68h-1.45l-.24.68h-.61l1.23-3.4h.67l1.23,3.4h-.6ZM149.16,39.96h1.08l-.54-1.53-.54,1.53Z"/>
        <path class="cls-2" d="M153.64,40.63h1.38v.53h-1.94v-3.4h.56v2.86Z"/>
        <path class="cls-2" d="M157.95,41.23c-.33,0-.61-.07-.83-.22-.23-.15-.39-.35-.48-.61l.48-.28c.14.38.42.57.84.57.21,0,.37-.04.48-.12.1-.08.16-.19.16-.33s-.06-.24-.17-.32c-.11-.07-.31-.16-.6-.24-.08-.02-.15-.05-.22-.07-.06-.02-.12-.05-.18-.07-.06-.02-.11-.05-.16-.08-.05-.03-.1-.06-.16-.1-.22-.16-.33-.38-.33-.68s.11-.54.32-.71c.21-.18.47-.27.77-.27.27,0,.51.07.72.2s.36.32.47.55l-.47.27c-.14-.32-.38-.48-.71-.48-.17,0-.3.04-.39.11-.1.08-.14.18-.14.31,0,.06.01.12.03.17s.06.09.11.13c.05.04.12.08.21.12.09.04.2.08.33.11.06.02.12.04.17.06s.09.03.11.04c.03,0,.07.02.11.04.04.02.09.04.14.06s.1.05.15.07c.04.02.08.05.1.07.05.04.09.08.13.12.04.05.08.1.12.16.03.06.06.12.08.19.02.07.03.14.02.23,0,.31-.11.55-.33.73-.22.18-.51.27-.87.27Z"/>
      </g>
    </g>
  </g>
</svg>