<?xml version="1.0" encoding="UTF-8"?>
<svg id="_Слой_2" data-name="Слой 2" xmlns="http://www.w3.org/2000/svg" viewBox="0 0 298 77.25">
  <defs>
    <style>
      .cls-1 {
        fill: #fff;
      }
    </style>
  </defs>
  <g id="_Слой_1-2" data-name="Слой 1">
    <g>
      <g>
        <path class="cls-1" d="M12.95,55.62H0L26.3,0h19.63l26.38,55.62h-12.95l-6.28-13.27H19.15l-6.2,13.27ZM24.08,31.94h24.08l-12-25.35-12.08,25.35Z"/>
        <path class="cls-1" d="M90.2,55.62h-11.68V0h48.23c22.41.48,22.57,32.9,0,33.37h-36.55v22.25ZM126.27,10.41h-36.08v12.95h36.08c7.63,0,7.63-12.95,0-12.95Z"/>
        <path class="cls-1" d="M162.99,55.62h-11.68V0h46.96c19.55.4,21.93,29.4,5.48,34.17h.08l11.68,21.46h-12.64l-11.52-21.14h-28.37v21.14ZM197.79,10.41h-34.8v14.06h34.8c8.11,0,8.11-14.06,0-14.06Z"/>
        <path class="cls-1" d="M235.7,55.62h-11.68V0h21.61l15.42,46.96L276.47,0h21.53v55.62h-11.68V7.39l-15.5,48.23h-19.63l-15.5-48.23v48.23Z"/>
      </g>
      <g>
        <path class="cls-1" d="M4.73,77.08l-.45-1.28H1.58l-.45,1.28H0l2.31-6.36h1.25l2.3,6.36h-1.13ZM1.93,74.82h2.02l-1.01-2.87-1.01,2.87Z"/>
        <path class="cls-1" d="M11.22,77.2c-.62,0-1.14-.14-1.56-.41s-.72-.66-.89-1.15l.9-.53c.25.71.78,1.07,1.58,1.07.4,0,.7-.08.89-.23.19-.15.29-.35.29-.61s-.11-.45-.32-.59c-.21-.14-.59-.29-1.13-.45-.15-.04-.29-.08-.4-.13-.12-.04-.23-.08-.33-.13s-.2-.09-.3-.14c-.09-.05-.2-.11-.3-.19-.41-.29-.62-.72-.62-1.28s.2-1.01.6-1.34c.39-.33.88-.5,1.44-.5.52,0,.96.12,1.34.37s.67.59.88,1.03l-.88.51c-.27-.59-.71-.89-1.34-.89-.31,0-.55.07-.73.21-.18.14-.27.33-.27.58,0,.12.02.23.06.31s.11.17.21.25c.1.08.23.15.4.22.16.07.37.14.61.21.12.04.23.08.31.1.09.03.16.05.21.08.06.02.13.04.2.07.08.03.17.07.27.11s.19.09.27.13c.08.04.14.09.19.13.08.07.17.14.25.23.08.09.15.19.22.3.06.11.11.23.15.36.04.13.05.27.04.42,0,.58-.21,1.04-.63,1.37-.41.33-.95.5-1.63.5Z"/>
        <path class="cls-1" d="M19.02,77.2c-.62,0-1.14-.14-1.56-.41s-.72-.66-.89-1.15l.9-.53c.25.71.78,1.07,1.58,1.07.4,0,.7-.08.89-.23.19-.15.29-.35.29-.61s-.11-.45-.32-.59c-.21-.14-.59-.29-1.13-.45-.15-.04-.29-.08-.4-.13-.12-.04-.23-.08-.33-.13s-.2-.09-.3-.14c-.09-.05-.2-.11-.3-.19-.41-.29-.62-.72-.62-1.28s.2-1.01.6-1.34c.39-.33.88-.5,1.45-.5.51,0,.96.12,1.34.37s.67.59.88,1.03l-.88.51c-.27-.59-.71-.89-1.34-.89-.31,0-.55.07-.73.21-.18.14-.27.33-.27.58,0,.12.02.23.06.31s.11.17.21.25c.1.08.23.15.4.22s.37.14.61.21c.12.04.23.08.31.1s.16.05.21.08c.06.02.13.04.2.07.08.03.17.07.27.11.1.04.19.09.27.13.08.04.14.09.19.13.08.07.17.14.25.23.08.09.15.19.22.3.06.11.11.23.15.36.04.13.05.27.04.42,0,.58-.21,1.04-.63,1.37-.41.33-.95.5-1.63.5Z"/>
        <path class="cls-1" d="M30.17,76.24c-.64.64-1.42.95-2.34.95s-1.7-.32-2.34-.95c-.64-.64-.95-1.42-.95-2.34s.32-1.7.95-2.34,1.42-.96,2.34-.96,1.7.32,2.34.96c.64.64.96,1.41.96,2.34s-.32,1.7-.96,2.34ZM26.23,75.54c.44.43.98.64,1.61.64s1.17-.21,1.6-.64c.44-.44.65-.98.65-1.64s-.22-1.2-.65-1.63c-.43-.44-.96-.65-1.6-.65s-1.17.22-1.61.65c-.43.43-.64.97-.64,1.63s.21,1.19.64,1.64Z"/>
        <path class="cls-1" d="M37.82,77.2c-.96,0-1.75-.32-2.38-.95-.63-.64-.95-1.43-.95-2.35s.32-1.71.95-2.34c.62-.64,1.42-.95,2.38-.95.29,0,.57.04.84.1.27.07.52.17.76.3.24.13.45.29.64.48s.36.4.5.63l-.91.53c-.17-.32-.42-.56-.74-.75s-.69-.28-1.09-.28c-.67,0-1.22.22-1.65.65-.42.43-.63.98-.63,1.64s.21,1.21.63,1.64c.43.43.98.64,1.65.64.4,0,.76-.09,1.09-.28.33-.18.57-.43.74-.75l.91.52c-.26.46-.64.83-1.14,1.12-.49.27-1.02.41-1.6.41Z"/>
        <path class="cls-1" d="M44.15,70.72h1.05v6.36h-1.05v-6.36Z"/>
        <path class="cls-1" d="M53.34,77.08l-.45-1.28h-2.71l-.45,1.28h-1.14l2.31-6.36h1.25l2.3,6.36h-1.13ZM50.53,74.82h2.02l-1.01-2.87-1.01,2.87Z"/>
        <path class="cls-1" d="M61.55,70.72v1h-1.79v5.36h-1.04v-5.36h-1.8v-1h4.64Z"/>
        <path class="cls-1" d="M65.05,70.72h1.05v6.36h-1.05v-6.36Z"/>
        <path class="cls-1" d="M75.41,76.24c-.64.64-1.42.95-2.34.95s-1.7-.32-2.34-.95c-.64-.64-.95-1.42-.95-2.34s.32-1.7.95-2.34,1.42-.96,2.34-.96,1.7.32,2.34.96c.64.64.96,1.41.96,2.34s-.32,1.7-.96,2.34ZM71.47,75.54c.44.43.98.64,1.61.64s1.17-.21,1.6-.64c.44-.44.65-.98.65-1.64s-.22-1.2-.65-1.63c-.43-.44-.96-.65-1.6-.65s-1.17.22-1.61.65c-.43.43-.64.97-.64,1.63s.21,1.19.64,1.64Z"/>
        <path class="cls-1" d="M83.87,70.72h1.05v6.36h-.82l-3-4.32v4.32h-1.05v-6.36h.82l3,4.32v-4.32Z"/>
        <path class="cls-1" d="M99.23,76.24c-.64.64-1.42.95-2.34.95s-1.7-.32-2.34-.95c-.64-.64-.95-1.42-.95-2.34s.32-1.7.95-2.34,1.42-.96,2.34-.96,1.7.32,2.34.96c.64.64.96,1.41.96,2.34s-.32,1.7-.96,2.34ZM95.28,75.54c.44.43.98.64,1.61.64s1.17-.21,1.6-.64c.44-.44.65-.98.65-1.64s-.22-1.2-.65-1.63c-.43-.44-.96-.65-1.6-.65s-1.17.22-1.61.65c-.43.43-.64.97-.64,1.63s.21,1.19.64,1.64Z"/>
        <path class="cls-1" d="M107.6,71.72h-2.68v1.78h2.59v1h-2.59v2.58h-1.05v-6.36h3.73v1Z"/>
        <path class="cls-1" d="M118.65,70.72c.6,0,1.1.2,1.5.6.41.4.61.9.61,1.49s-.2,1.08-.61,1.49-.9.6-1.5.6h-1.3v2.18h-1.05v-6.36h2.34ZM118.65,73.92c.15,0,.29-.03.42-.08.13-.05.24-.13.34-.23.1-.1.17-.22.22-.35.05-.13.08-.28.08-.45s-.03-.31-.08-.45c-.05-.13-.13-.25-.22-.35-.1-.1-.21-.18-.34-.23-.13-.05-.27-.08-.42-.08h-1.3v2.22h1.3Z"/>
        <path class="cls-1" d="M128.02,77.08l-1.35-2.32h-1.24v2.32h-1.05v-6.36h2.54c.57,0,1.05.2,1.45.6.4.39.6.88.6,1.45,0,.2-.03.4-.09.59s-.15.37-.26.53c-.11.16-.25.3-.4.43s-.33.23-.51.3l1.44,2.47h-1.14ZM125.44,71.7v2.12h1.5c.14,0,.27-.03.39-.08s.23-.13.32-.23.16-.21.21-.34c.05-.13.08-.27.08-.41s-.03-.28-.08-.41c-.05-.13-.12-.24-.21-.34-.09-.1-.2-.17-.32-.23s-.25-.08-.39-.08h-1.5Z"/>
        <path class="cls-1" d="M142.9,76.76l-.85.49-.61-.65c-.5.4-1.09.6-1.77.6s-1.17-.17-1.58-.5c-.4-.33-.6-.79-.6-1.36,0-.38.09-.73.28-1.05.19-.32.46-.58.83-.77-.24-.33-.36-.7-.36-1.11,0-.53.18-.97.55-1.3.37-.33.83-.5,1.38-.5.44,0,.83.12,1.18.35.35.23.61.56.78.98l-.89.51c-.08-.25-.22-.45-.4-.6s-.4-.22-.66-.22-.47.07-.64.22-.26.34-.26.59c0,.13.03.25.08.38.05.13.11.23.18.31s.16.19.29.32l1.54,1.67c.15-.31.26-.68.33-1.11l.89.51c-.11.51-.28.96-.53,1.35l.83.9ZM139.73,76.23c.41,0,.76-.11,1.05-.34l-1.56-1.68c-.45.23-.67.58-.67,1.05,0,.3.1.53.3.71s.5.26.88.26Z"/>
        <path class="cls-1" d="M157.57,70.72v6.36h-1.05v-4.54l-1.94,3.2h-.13l-1.94-3.21v4.54h-1.05v-6.36h1.13l1.92,3.18,1.93-3.18h1.12Z"/>
        <path class="cls-1" d="M162.62,76.08h2.82v1h-3.86v-6.36h3.82v1h-2.77v1.65h2.54v.99h-2.54v1.72Z"/>
        <path class="cls-1" d="M171.61,70.72c.87,0,1.6.31,2.17.92.58.61.87,1.37.87,2.26s-.29,1.64-.87,2.26c-.58.61-1.3.92-2.17.92h-2.5v-6.36h2.5ZM171.61,76.08c.6,0,1.09-.21,1.46-.62.38-.41.57-.93.57-1.56s-.19-1.15-.57-1.56c-.38-.41-.86-.62-1.46-.62h-1.45v4.36h1.45Z"/>
        <path class="cls-1" d="M178.34,70.72h1.05v6.36h-1.05v-6.36Z"/>
        <path class="cls-1" d="M187.53,77.08l-.45-1.28h-2.71l-.45,1.28h-1.14l2.31-6.36h1.25l2.3,6.36h-1.13ZM184.72,74.82h2.02l-1.01-2.87-1.01,2.87Z"/>
        <path class="cls-1" d="M199.4,70.72c.6,0,1.1.2,1.5.6.41.4.61.9.61,1.49s-.2,1.08-.61,1.49-.9.6-1.5.6h-1.3v2.18h-1.05v-6.36h2.34ZM199.4,73.92c.15,0,.29-.03.42-.08.13-.05.24-.13.34-.23.1-.1.17-.22.22-.35.05-.13.08-.28.08-.45s-.03-.31-.08-.45c-.05-.13-.13-.25-.22-.35-.1-.1-.21-.18-.34-.23-.13-.05-.27-.08-.42-.08h-1.3v2.22h1.3Z"/>
        <path class="cls-1" d="M208.77,77.08l-1.35-2.32h-1.24v2.32h-1.05v-6.36h2.54c.57,0,1.05.2,1.45.6.4.39.6.88.6,1.45,0,.2-.03.4-.09.59s-.15.37-.26.53c-.11.16-.25.3-.4.43-.15.13-.33.23-.51.3l1.45,2.47h-1.14ZM206.19,71.7v2.12h1.5c.14,0,.27-.03.39-.08.12-.05.23-.13.32-.23s.16-.21.21-.34.08-.27.08-.41-.03-.28-.08-.41c-.05-.13-.12-.24-.21-.34-.09-.1-.2-.17-.32-.23-.12-.05-.25-.08-.39-.08h-1.5Z"/>
        <path class="cls-1" d="M218.71,76.24c-.64.64-1.41.95-2.34.95s-1.7-.32-2.34-.95c-.64-.64-.95-1.42-.95-2.34s.32-1.7.95-2.34,1.42-.96,2.34-.96,1.7.32,2.34.96c.64.64.96,1.41.96,2.34s-.32,1.7-.96,2.34ZM214.77,75.54c.44.43.98.64,1.61.64s1.17-.21,1.6-.64c.44-.44.65-.98.65-1.64s-.22-1.2-.65-1.63c-.43-.44-.96-.65-1.6-.65s-1.17.22-1.61.65c-.43.43-.64.97-.64,1.63s.21,1.19.64,1.64Z"/>
        <path class="cls-1" d="M227.08,71.72h-2.68v1.78h2.59v1h-2.59v2.58h-1.05v-6.36h3.73v1Z"/>
        <path class="cls-1" d="M231.84,76.08h2.82v1h-3.86v-6.36h3.82v1h-2.77v1.65h2.54v.99h-2.54v1.72Z"/>
        <path class="cls-1" d="M240.45,77.2c-.62,0-1.14-.14-1.56-.41-.42-.28-.72-.66-.89-1.15l.9-.53c.25.71.78,1.07,1.58,1.07.4,0,.7-.08.89-.23.19-.15.29-.35.29-.61s-.11-.45-.32-.59c-.21-.14-.59-.29-1.13-.45-.15-.04-.29-.08-.4-.13-.12-.04-.23-.08-.33-.13-.1-.04-.2-.09-.3-.14-.09-.05-.2-.11-.3-.19-.41-.29-.62-.72-.62-1.28s.2-1.01.6-1.34c.39-.33.88-.5,1.45-.5.51,0,.96.12,1.34.37s.67.59.88,1.03l-.88.51c-.27-.59-.71-.89-1.34-.89-.31,0-.55.07-.73.21-.18.14-.27.33-.27.58,0,.12.02.23.06.31s.11.17.21.25c.1.08.23.15.39.22.16.07.37.14.61.21.12.04.23.08.31.1s.16.05.21.08c.06.02.13.04.2.07.08.03.17.07.27.11s.19.09.27.13c.08.04.14.09.19.13.08.07.17.14.25.23.08.09.15.19.22.3.06.11.11.23.15.36.04.13.05.27.04.42,0,.58-.21,1.04-.63,1.37-.41.33-.95.5-1.63.5Z"/>
        <path class="cls-1" d="M248.25,77.2c-.62,0-1.14-.14-1.56-.41-.42-.28-.72-.66-.89-1.15l.9-.53c.25.71.78,1.07,1.58,1.07.4,0,.7-.08.89-.23.19-.15.29-.35.29-.61s-.11-.45-.32-.59c-.21-.14-.59-.29-1.13-.45-.15-.04-.29-.08-.4-.13-.12-.04-.23-.08-.33-.13-.1-.04-.2-.09-.3-.14-.09-.05-.2-.11-.3-.19-.41-.29-.62-.72-.62-1.28s.2-1.01.6-1.34c.39-.33.88-.5,1.45-.5.51,0,.96.12,1.34.37s.67.59.88,1.03l-.88.51c-.27-.59-.71-.89-1.34-.89-.31,0-.55.07-.73.21-.18.14-.27.33-.27.58,0,.12.02.23.06.31s.11.17.21.25c.1.08.23.15.39.22.16.07.37.14.61.21.12.04.23.08.31.1s.16.05.21.08c.06.02.13.04.2.07.08.03.17.07.27.11s.19.09.27.13c.08.04.14.09.19.13.08.07.17.14.25.23.08.09.15.19.22.3.06.11.11.23.15.36.04.13.05.27.04.42,0,.58-.21,1.04-.63,1.37-.41.33-.95.5-1.63.5Z"/>
        <path class="cls-1" d="M254.08,70.72h1.05v6.36h-1.05v-6.36Z"/>
        <path class="cls-1" d="M264.44,76.24c-.64.64-1.41.95-2.34.95s-1.7-.32-2.34-.95c-.64-.64-.95-1.42-.95-2.34s.32-1.7.95-2.34,1.42-.96,2.34-.96,1.7.32,2.34.96c.64.64.96,1.41.96,2.34s-.32,1.7-.96,2.34ZM260.5,75.54c.44.43.98.64,1.61.64s1.17-.21,1.6-.64c.44-.44.65-.98.65-1.64s-.22-1.2-.65-1.63c-.43-.44-.96-.65-1.6-.65s-1.17.22-1.61.65c-.43.43-.64.97-.64,1.63s.21,1.19.64,1.64Z"/>
        <path class="cls-1" d="M272.9,70.72h1.04v6.36h-.82l-3-4.32v4.32h-1.05v-6.36h.82l3,4.32v-4.32Z"/>
        <path class="cls-1" d="M282.09,77.08l-.45-1.28h-2.71l-.45,1.28h-1.14l2.31-6.36h1.25l2.3,6.36h-1.13ZM279.28,74.82h2.02l-1.01-2.87-1.01,2.87Z"/>
        <path class="cls-1" d="M287.67,76.08h2.59v1h-3.64v-6.36h1.05v5.36Z"/>
        <path class="cls-1" d="M295.74,77.2c-.62,0-1.14-.14-1.56-.41-.42-.28-.72-.66-.89-1.15l.9-.53c.25.71.78,1.07,1.58,1.07.4,0,.7-.08.89-.23.19-.15.29-.35.29-.61s-.11-.45-.32-.59c-.21-.14-.59-.29-1.13-.45-.15-.04-.29-.08-.4-.13-.12-.04-.23-.08-.33-.13-.1-.04-.2-.09-.3-.14-.09-.05-.2-.11-.3-.19-.41-.29-.62-.72-.62-1.28s.2-1.01.6-1.34c.39-.33.88-.5,1.45-.5.51,0,.96.12,1.34.37s.67.59.88,1.03l-.88.51c-.27-.59-.71-.89-1.34-.89-.31,0-.55.07-.73.21-.18.14-.27.33-.27.58,0,.12.02.23.06.31s.11.17.21.25c.1.08.23.15.39.22.16.07.37.14.61.21.12.04.23.08.31.1s.16.05.21.08c.06.02.13.04.2.07.08.03.17.07.27.11s.19.09.27.13c.08.04.14.09.19.13.08.07.17.14.25.23.08.09.15.19.22.3.06.11.11.23.15.36.04.13.05.27.04.42,0,.58-.21,1.04-.63,1.37-.41.33-.95.5-1.63.5Z"/>
      </g>
    </g>
  </g>
</svg>